<svg width="76" height="76" viewBox="0 0 76 76" fill="none" xmlns="http://www.w3.org/2000/svg" xmlns:xlink="http://www.w3.org/1999/xlink">
<path d="M38,0C27.922,0 18.256,4.004 11.13,11.13C4.004,18.256 0,27.922 0,38C0,48.078 4.004,57.744 11.13,64.87C18.256,71.996 27.922,76 38,76L38,38L38,0Z" fill="url(#pf_0_1_195)"/>
<path d="M38,0C27.922,0 18.256,4.004 11.13,11.13C4.004,18.256 0,27.922 0,38C0,48.078 4.004,57.744 11.13,64.87C18.256,71.996 27.922,76 38,76L38,38L38,0Z" transform="rotate(-360 38 38)" fill="#D8FFFC"/>
<defs>
<linearGradient id="pf_0_1_195" x1="38" y1="0" x2="38" y2="76" gradientUnits="userSpaceOnUse">
<stop stop-color="#01E5D4"/>
<stop offset="0.83" stop-color="#137AEA"/>
</linearGradient>
</defs>
</svg>
