<svg width="214" height="44" viewBox="0 0 214 44" fill="none" xmlns="http://www.w3.org/2000/svg">
<g opacity="0.56" clip-path="url(#clip0_1_1052)">
<path d="M24.22 14.6068C20.0778 14.6068 16.72 17.9647 16.72 22.1068C16.72 23.565 17.1366 24.9257 17.8566 26.0773L16.72 29.6068L20.2495 28.4702C21.4011 29.1902 22.7618 29.6068 24.22 29.6068C28.3621 29.6068 31.72 26.2489 31.72 22.1068C31.72 17.9647 28.3621 14.6068 24.22 14.6068Z" stroke="white" stroke-width="1.5" stroke-miterlimit="10" stroke-linecap="round" stroke-linejoin="round"/>
<path d="M25.0144 22.1054C25.0144 22.5442 24.6587 22.8999 24.2199 22.8999C23.7811 22.8999 23.4254 22.5442 23.4254 22.1054C23.4254 21.6666 23.7811 21.3109 24.2199 21.3109C24.6587 21.3109 25.0144 21.6666 25.0144 22.1054Z" fill="white"/>
<path d="M28.1927 22.1054C28.1927 22.5442 27.837 22.8999 27.3983 22.8999C26.9595 22.8999 26.6038 22.5442 26.6038 22.1054C26.6038 21.6666 26.9595 21.3109 27.3983 21.3109C27.837 21.3109 28.1927 21.6666 28.1927 22.1054Z" fill="white"/>
<path d="M21.8365 22.1054C21.8365 22.5442 21.4808 22.8999 21.042 22.8999C20.6033 22.8999 20.2476 22.5442 20.2476 22.1054C20.2476 21.6666 20.6033 21.3109 21.042 21.3109C21.4808 21.3109 21.8365 21.6666 21.8365 22.1054Z" fill="white"/>
</g>
<g filter="url(#filter0_d_1_1052)">
<path d="M52.478 24.3558C52.478 24.4288 52.4757 24.4926 52.4712 24.5472C52.4666 24.6019 52.4575 24.6498 52.4438 24.6908C52.4347 24.7318 52.4211 24.7683 52.4028 24.8002C52.3846 24.8321 52.3527 24.8708 52.3071 24.9164C52.2616 24.962 52.1659 25.0326 52.02 25.1283C51.8742 25.2194 51.6919 25.3106 51.4731 25.4017C51.259 25.4883 51.0106 25.5612 50.728 25.6205C50.45 25.6843 50.1447 25.7162 49.812 25.7162C49.2378 25.7162 48.7183 25.6205 48.2534 25.4291C47.7931 25.2377 47.3989 24.9551 47.0708 24.5814C46.7472 24.2077 46.4966 23.7474 46.3188 23.2006C46.1457 22.6491 46.0591 22.0157 46.0591 21.3002C46.0591 20.5664 46.1525 19.9125 46.3394 19.3383C46.5308 18.764 46.7974 18.2787 47.1392 17.8822C47.481 17.4812 47.8888 17.1758 48.3628 16.9662C48.8413 16.7566 49.37 16.6517 49.9487 16.6517C50.2039 16.6517 50.4523 16.6768 50.6938 16.7269C50.9354 16.7725 51.1587 16.8317 51.3638 16.9047C51.5688 16.9776 51.7511 17.0619 51.9106 17.1576C52.0701 17.2533 52.1795 17.333 52.2388 17.3969C52.3026 17.4561 52.3436 17.5017 52.3618 17.5336C52.38 17.5655 52.3937 17.6042 52.4028 17.6498C52.4165 17.6908 52.4256 17.7409 52.4302 17.8002C52.4393 17.8594 52.4438 17.9301 52.4438 18.0121C52.4438 18.1032 52.4393 18.1807 52.4302 18.2445C52.4211 18.3083 52.4074 18.363 52.3892 18.4086C52.3709 18.4496 52.3481 18.4815 52.3208 18.5043C52.298 18.5225 52.2684 18.5316 52.2319 18.5316C52.1681 18.5316 52.0793 18.4883 51.9653 18.4017C51.8514 18.3106 51.7033 18.2126 51.521 18.1078C51.3433 17.9984 51.1245 17.9004 50.8647 17.8138C50.6095 17.7227 50.3019 17.6771 49.9419 17.6771C49.55 17.6771 49.1922 17.7569 48.8687 17.9164C48.5496 18.0713 48.2762 18.3015 48.0483 18.6068C47.8205 18.9122 47.6427 19.2858 47.5151 19.7279C47.3921 20.1654 47.3306 20.6667 47.3306 21.2318C47.3306 21.7924 47.3898 22.2891 47.5083 22.722C47.6313 23.1504 47.8045 23.5105 48.0278 23.8021C48.2557 24.0892 48.5337 24.308 48.8618 24.4584C49.1899 24.6042 49.5614 24.6771 49.9761 24.6771C50.327 24.6771 50.6323 24.6338 50.8921 24.5472C51.1564 24.4607 51.3797 24.3649 51.562 24.2601C51.7489 24.1508 51.9015 24.0528 52.02 23.9662C52.1385 23.8796 52.2319 23.8363 52.3003 23.8363C52.3322 23.8363 52.3595 23.8431 52.3823 23.8568C52.4051 23.8705 52.4233 23.8978 52.437 23.9388C52.4507 23.9753 52.4598 24.0277 52.4644 24.0961C52.4735 24.1644 52.478 24.251 52.478 24.3558ZM59.2046 25.4359C59.2046 25.4724 59.1955 25.5043 59.1772 25.5316C59.159 25.5544 59.1294 25.5749 59.0884 25.5931C59.0474 25.6114 58.9904 25.625 58.9175 25.6342C58.8446 25.6433 58.7534 25.6478 58.644 25.6478C58.5301 25.6478 58.4367 25.6433 58.3638 25.6342C58.2909 25.625 58.2339 25.6114 58.1929 25.5931C58.1519 25.5749 58.1222 25.5544 58.104 25.5316C58.0858 25.5043 58.0767 25.4724 58.0767 25.4359V21.8334C58.0767 21.4825 58.0493 21.1999 57.9946 20.9857C57.9399 20.7715 57.8602 20.587 57.7554 20.432C57.6506 20.2771 57.5138 20.1586 57.3452 20.0765C57.1812 19.9945 56.9897 19.9535 56.771 19.9535C56.4884 19.9535 56.2059 20.0538 55.9233 20.2543C55.6408 20.4548 55.3446 20.7487 55.0347 21.1361V25.4359C55.0347 25.4724 55.0256 25.5043 55.0073 25.5316C54.9891 25.5544 54.9595 25.5749 54.9185 25.5931C54.8774 25.6114 54.8205 25.625 54.7476 25.6342C54.6746 25.6433 54.5812 25.6478 54.4673 25.6478C54.3579 25.6478 54.2668 25.6433 54.1938 25.6342C54.1209 25.625 54.0617 25.6114 54.0161 25.5931C53.9751 25.5749 53.9455 25.5544 53.9272 25.5316C53.9136 25.5043 53.9067 25.4724 53.9067 25.4359V16.3031C53.9067 16.2666 53.9136 16.2347 53.9272 16.2074C53.9455 16.1801 53.9751 16.1573 54.0161 16.139C54.0617 16.1208 54.1209 16.1071 54.1938 16.098C54.2668 16.0889 54.3579 16.0844 54.4673 16.0844C54.5812 16.0844 54.6746 16.0889 54.7476 16.098C54.8205 16.1071 54.8774 16.1208 54.9185 16.139C54.9595 16.1573 54.9891 16.1801 55.0073 16.2074C55.0256 16.2347 55.0347 16.2666 55.0347 16.3031V19.9877C55.3582 19.6459 55.6841 19.3929 56.0122 19.2289C56.3403 19.0603 56.6707 18.976 57.0034 18.976C57.4136 18.976 57.7576 19.0466 58.0356 19.1879C58.3182 19.3246 58.5461 19.5092 58.7192 19.7416C58.8924 19.974 59.0155 20.2474 59.0884 20.5619C59.1659 20.8718 59.2046 21.2478 59.2046 21.6898V25.4359ZM65.897 25.4427C65.897 25.4974 65.8787 25.5385 65.8423 25.5658C65.8058 25.5931 65.7557 25.6136 65.6919 25.6273C65.6281 25.641 65.5347 25.6478 65.4116 25.6478C65.2931 25.6478 65.1974 25.641 65.1245 25.6273C65.0562 25.6136 65.006 25.5931 64.9741 25.5658C64.9422 25.5385 64.9263 25.4974 64.9263 25.4427V24.8275C64.6574 25.1146 64.3566 25.3379 64.0239 25.4974C63.6958 25.6569 63.3472 25.7367 62.978 25.7367C62.6545 25.7367 62.3605 25.6934 62.0962 25.6068C61.8364 25.5248 61.6131 25.404 61.4263 25.2445C61.244 25.085 61.1004 24.889 60.9956 24.6566C60.8953 24.4242 60.8452 24.1599 60.8452 23.8636C60.8452 23.5173 60.9159 23.2165 61.0571 22.9613C61.1984 22.7061 61.4012 22.4942 61.6655 22.3256C61.9299 22.1569 62.2534 22.0316 62.6362 21.9496C63.019 21.863 63.4497 21.8197 63.9282 21.8197H64.7759V21.3412C64.7759 21.1042 64.7508 20.8946 64.7007 20.7123C64.6506 20.53 64.5685 20.3796 64.4546 20.2611C64.3452 20.1381 64.2017 20.0469 64.0239 19.9877C63.8462 19.9239 63.6274 19.892 63.3677 19.892C63.0897 19.892 62.839 19.9261 62.6157 19.9945C62.397 20.0583 62.2033 20.1312 62.0347 20.2133C61.8706 20.2907 61.7316 20.3636 61.6177 20.432C61.5083 20.4958 61.4263 20.5277 61.3716 20.5277C61.3351 20.5277 61.3032 20.5186 61.2759 20.5004C61.2485 20.4821 61.2235 20.4548 61.2007 20.4183C61.1825 20.3819 61.1688 20.3363 61.1597 20.2816C61.1506 20.2224 61.146 20.1586 61.146 20.0902C61.146 19.9763 61.1528 19.8874 61.1665 19.8236C61.1847 19.7552 61.2235 19.6914 61.2827 19.6322C61.3465 19.573 61.4536 19.5046 61.604 19.4271C61.7544 19.3451 61.9276 19.2722 62.1235 19.2084C62.3195 19.14 62.5337 19.0853 62.7661 19.0443C62.9985 18.9987 63.2332 18.976 63.4702 18.976C63.9123 18.976 64.2882 19.0261 64.5981 19.1263C64.908 19.2266 65.1587 19.3747 65.3501 19.5707C65.5415 19.7621 65.6805 20.0013 65.7671 20.2885C65.8537 20.5756 65.897 20.9105 65.897 21.2933V25.4427ZM64.7759 22.6332H63.812C63.5021 22.6332 63.2332 22.6605 63.0054 22.7152C62.7775 22.7653 62.5884 22.8428 62.438 22.9476C62.2876 23.0479 62.1759 23.1709 62.103 23.3168C62.0347 23.458 62.0005 23.6221 62.0005 23.809C62.0005 24.128 62.1007 24.3832 62.3013 24.5746C62.5063 24.7614 62.7912 24.8549 63.1558 24.8549C63.452 24.8549 63.7254 24.7797 63.9761 24.6293C64.2313 24.4789 64.4979 24.2487 64.7759 23.9388V22.6332ZM71.0376 24.9847C71.0376 25.1169 71.0285 25.2217 71.0103 25.2992C70.992 25.3767 70.9647 25.4336 70.9282 25.4701C70.8918 25.5066 70.8371 25.5407 70.7642 25.5726C70.6912 25.6045 70.6069 25.6296 70.5112 25.6478C70.4201 25.6706 70.3221 25.6888 70.2173 25.7025C70.1125 25.7162 70.0076 25.723 69.9028 25.723C69.5838 25.723 69.3104 25.682 69.0825 25.6C68.8547 25.5134 68.6678 25.3858 68.522 25.2172C68.3761 25.044 68.269 24.8275 68.2007 24.5677C68.1369 24.3034 68.105 23.9935 68.105 23.6381V20.0424H67.2437C67.1753 20.0424 67.1206 20.0059 67.0796 19.933C67.0386 19.8601 67.0181 19.7416 67.0181 19.5775C67.0181 19.4909 67.0226 19.418 67.0317 19.3588C67.0454 19.2995 67.0614 19.2517 67.0796 19.2152C67.0978 19.1742 67.1206 19.1469 67.1479 19.1332C67.1799 19.1149 67.214 19.1058 67.2505 19.1058H68.105V17.6429C68.105 17.611 68.1118 17.5814 68.1255 17.5541C68.1437 17.5267 68.1733 17.5039 68.2144 17.4857C68.2599 17.4629 68.3192 17.447 68.3921 17.4379C68.465 17.4288 68.5562 17.4242 68.6655 17.4242C68.7795 17.4242 68.8729 17.4288 68.9458 17.4379C69.0187 17.447 69.0757 17.4629 69.1167 17.4857C69.1577 17.5039 69.1873 17.5267 69.2056 17.5541C69.2238 17.5814 69.2329 17.611 69.2329 17.6429V19.1058H70.812C70.8485 19.1058 70.8804 19.1149 70.9077 19.1332C70.9351 19.1469 70.9578 19.1742 70.9761 19.2152C70.9989 19.2517 71.0148 19.2995 71.0239 19.3588C71.033 19.418 71.0376 19.4909 71.0376 19.5775C71.0376 19.7416 71.0171 19.8601 70.9761 19.933C70.9351 20.0059 70.8804 20.0424 70.812 20.0424H69.2329V23.474C69.2329 23.8978 69.2944 24.2191 69.4175 24.4379C69.5451 24.6521 69.7707 24.7592 70.0942 24.7592C70.1991 24.7592 70.2925 24.75 70.3745 24.7318C70.4565 24.709 70.5295 24.6862 70.5933 24.6635C70.6571 24.6407 70.7118 24.6202 70.7573 24.6019C70.8029 24.5791 70.8439 24.5677 70.8804 24.5677C70.9032 24.5677 70.9237 24.5746 70.9419 24.5883C70.9647 24.5974 70.9806 24.6179 70.9897 24.6498C71.0034 24.6817 71.0148 24.725 71.0239 24.7797C71.033 24.8344 71.0376 24.9027 71.0376 24.9847ZM76.3901 23.7611C76.3901 24.0756 76.3309 24.3558 76.2124 24.6019C76.0985 24.848 75.9344 25.0554 75.7202 25.224C75.506 25.3926 75.2508 25.5202 74.9546 25.6068C74.6584 25.6934 74.3325 25.7367 73.9771 25.7367C73.7583 25.7367 73.5487 25.7185 73.3481 25.682C73.1522 25.6501 72.9744 25.6091 72.8149 25.559C72.66 25.5043 72.5278 25.4496 72.4185 25.3949C72.3091 25.3357 72.2293 25.2832 72.1792 25.2377C72.1291 25.1921 72.0926 25.1283 72.0698 25.0463C72.047 24.9642 72.0356 24.8526 72.0356 24.7113C72.0356 24.6247 72.0402 24.5518 72.0493 24.4926C72.0584 24.4333 72.0698 24.3855 72.0835 24.349C72.0972 24.3125 72.1154 24.2875 72.1382 24.2738C72.1655 24.2556 72.1951 24.2465 72.2271 24.2465C72.2772 24.2465 72.3501 24.2784 72.4458 24.3422C72.5461 24.4014 72.6668 24.4675 72.8081 24.5404C72.9539 24.6133 73.1248 24.6817 73.3208 24.7455C73.5168 24.8047 73.7424 24.8344 73.9976 24.8344C74.189 24.8344 74.3621 24.8138 74.5171 24.7728C74.672 24.7318 74.8065 24.6726 74.9204 24.5951C75.0343 24.5131 75.1209 24.4105 75.1802 24.2875C75.244 24.1644 75.2759 24.0186 75.2759 23.85C75.2759 23.6768 75.2303 23.531 75.1392 23.4125C75.0526 23.294 74.9364 23.1892 74.7905 23.098C74.6447 23.0069 74.4806 22.9271 74.2983 22.8588C74.116 22.7858 73.9269 22.7107 73.731 22.6332C73.5396 22.5557 73.3504 22.4691 73.1636 22.3734C72.9813 22.2732 72.8172 22.1524 72.6714 22.0111C72.5256 21.8698 72.4071 21.7012 72.3159 21.5052C72.2293 21.3093 72.186 21.0746 72.186 20.8011C72.186 20.5596 72.2316 20.3295 72.3228 20.1107C72.4185 19.8874 72.5597 19.6937 72.7466 19.5297C72.9334 19.361 73.1659 19.2266 73.4438 19.1263C73.7264 19.0261 74.0545 18.976 74.4282 18.976C74.5923 18.976 74.7563 18.9896 74.9204 19.017C75.0845 19.0443 75.2326 19.0785 75.3647 19.1195C75.4969 19.1605 75.6086 19.2061 75.6997 19.2562C75.7954 19.3018 75.866 19.3428 75.9116 19.3793C75.9618 19.4157 75.9937 19.4476 76.0073 19.475C76.0256 19.5023 76.0369 19.5342 76.0415 19.5707C76.0506 19.6026 76.0575 19.6436 76.062 19.6937C76.0711 19.7439 76.0757 19.8054 76.0757 19.8783C76.0757 19.9558 76.0711 20.0241 76.062 20.0834C76.0575 20.1381 76.0461 20.1836 76.0278 20.2201C76.0142 20.2566 75.9959 20.2839 75.9731 20.3021C75.9504 20.3158 75.9253 20.3226 75.8979 20.3226C75.8569 20.3226 75.7977 20.2976 75.7202 20.2474C75.6427 20.1973 75.5425 20.1449 75.4194 20.0902C75.2964 20.031 75.1506 19.9763 74.9819 19.9261C74.8179 19.876 74.6287 19.851 74.4146 19.851C74.2231 19.851 74.0545 19.8737 73.9087 19.9193C73.7629 19.9603 73.6421 20.0219 73.5464 20.1039C73.4552 20.1814 73.3846 20.2748 73.3345 20.3842C73.2889 20.4935 73.2661 20.612 73.2661 20.7396C73.2661 20.9174 73.3117 21.0677 73.4028 21.1908C73.494 21.3093 73.6125 21.4141 73.7583 21.5052C73.9041 21.5964 74.0705 21.6784 74.2573 21.7513C74.4442 21.8243 74.6333 21.8995 74.8247 21.9769C75.0207 22.0544 75.2121 22.141 75.3989 22.2367C75.5903 22.3324 75.759 22.4486 75.9048 22.5853C76.0506 22.722 76.1668 22.8861 76.2534 23.0775C76.3446 23.2689 76.3901 23.4968 76.3901 23.7611Z" fill="white" fill-opacity="0.56" shape-rendering="crispEdges"/>
</g>
<defs>
<filter id="filter0_d_1_1052" x="33.8831" y="3.90835" width="54.6831" height="34.0043" filterUnits="userSpaceOnUse" color-interpolation-filters="sRGB">
<feFlood flood-opacity="0" result="BackgroundImageFix"/>
<feColorMatrix in="SourceAlpha" type="matrix" values="0 0 0 0 0 0 0 0 0 0 0 0 0 0 0 0 0 0 127 0" result="hardAlpha"/>
<feOffset/>
<feGaussianBlur stdDeviation="6.088"/>
<feComposite in2="hardAlpha" operator="out"/>
<feColorMatrix type="matrix" values="0 0 0 0 1 0 0 0 0 1 0 0 0 0 1 0 0 0 1 0"/>
<feBlend mode="overlay" in2="BackgroundImageFix" result="effect1_dropShadow_1_1052"/>
<feBlend mode="normal" in="SourceGraphic" in2="effect1_dropShadow_1_1052" result="shape"/>
</filter>
<clipPath id="clip0_1_1052">
<rect width="18" height="18" fill="white" transform="translate(15.22 13.1068)"/>
</clipPath>
</defs>
</svg>
