<svg width="214" height="43" viewBox="0 0 214 43" fill="none" xmlns="http://www.w3.org/2000/svg">
<g opacity="0.56" clip-path="url(#clip0_1_1044)">
<path d="M31.7905 20.714C31.79 20.7136 31.7896 20.7131 31.7892 20.7128L25.2619 14.1863C24.9836 13.9079 24.6137 13.7548 24.2203 13.7548C23.8268 13.7548 23.4569 13.9079 23.1785 14.1863L16.6545 20.7094C16.6523 20.7116 16.65 20.7139 16.648 20.7162C16.0766 21.2907 16.0776 22.223 16.6508 22.7961C16.9126 23.0581 17.2583 23.2097 17.6281 23.2257C17.6433 23.2271 17.6584 23.2279 17.6737 23.2279H17.9337V28.0309C17.9337 28.9814 18.7072 29.7547 19.6579 29.7547H22.2116C22.4705 29.7547 22.6804 29.5448 22.6804 29.286V25.5204C22.6804 25.0867 23.0334 24.7339 23.4671 24.7339H24.9734C25.4072 24.7339 25.7599 25.0867 25.7599 25.5204V29.286C25.7599 29.5448 25.9698 29.7548 26.2287 29.7548H28.7825C29.7332 29.7548 30.5066 28.9814 30.5066 28.0309V23.2279H30.7479C31.1412 23.2279 31.5111 23.0747 31.7896 22.7962C32.3634 22.2223 32.3636 21.2883 31.7905 20.7139L31.7905 20.714ZM31.1266 22.1334C31.077 22.1833 31.018 22.2229 30.953 22.2498C30.8879 22.2768 30.8182 22.2906 30.7479 22.2904H30.0378C29.7789 22.2904 29.569 22.5002 29.569 22.7592V28.0309C29.569 28.4645 29.2162 28.8173 28.7824 28.8173H26.6975V25.5204C26.6975 24.5698 25.9241 23.7964 24.9733 23.7964H23.4671C22.5164 23.7964 21.7428 24.5698 21.7428 25.5204V28.8173H19.6579C19.2243 28.8173 18.8713 28.4644 18.8713 28.0309V22.7591C18.8713 22.5002 18.6615 22.2904 18.4025 22.2904H17.7047C17.6974 22.2899 17.69 22.2895 17.6827 22.2894C17.543 22.2869 17.4121 22.2315 17.3139 22.1333C17.1052 21.9245 17.1052 21.5848 17.3139 21.3759C17.314 21.3759 17.314 21.3758 17.3141 21.3757L17.3145 21.3753L23.8417 14.8491C23.8912 14.7992 23.9502 14.7597 24.0152 14.7327C24.0802 14.7058 24.1499 14.692 24.2203 14.6923C24.3632 14.6923 24.4976 14.7479 24.5988 14.8491L31.1245 21.374L31.1275 21.3769C31.3352 21.5861 31.3348 21.9251 31.1266 22.1334Z" fill="white" stroke="white" stroke-width="0.5"/>
</g>
<g filter="url(#filter0_d_1_1044)">
<path d="M52.9429 25.077C52.9429 25.1135 52.9338 25.1454 52.9155 25.1727C52.8973 25.2001 52.8654 25.2229 52.8198 25.2411C52.7743 25.2548 52.7127 25.2662 52.6353 25.2753C52.5623 25.2889 52.4712 25.2958 52.3618 25.2958C52.2433 25.2958 52.1476 25.2889 52.0747 25.2753C52.0018 25.2662 51.9425 25.2548 51.897 25.2411C51.8514 25.2229 51.8195 25.2001 51.8013 25.1727C51.783 25.1454 51.7739 25.1135 51.7739 25.077V21.1532H47.7476V25.077C47.7476 25.1135 47.7384 25.1454 47.7202 25.1727C47.702 25.2001 47.6701 25.2229 47.6245 25.2411C47.5789 25.2548 47.5174 25.2662 47.4399 25.2753C47.367 25.2889 47.2736 25.2958 47.1597 25.2958C47.0503 25.2958 46.9569 25.2889 46.8794 25.2753C46.8019 25.2662 46.7404 25.2548 46.6948 25.2411C46.6493 25.2229 46.6174 25.2001 46.5991 25.1727C46.5809 25.1454 46.5718 25.1135 46.5718 25.077V16.5868C46.5718 16.5503 46.5809 16.5184 46.5991 16.4911C46.6174 16.4637 46.6493 16.4432 46.6948 16.4296C46.7404 16.4113 46.8019 16.3977 46.8794 16.3885C46.9569 16.3749 47.0503 16.368 47.1597 16.368C47.2736 16.368 47.367 16.3749 47.4399 16.3885C47.5174 16.3977 47.5789 16.4113 47.6245 16.4296C47.6701 16.4432 47.702 16.4637 47.7202 16.4911C47.7384 16.5184 47.7476 16.5503 47.7476 16.5868V20.1278H51.7739V16.5868C51.7739 16.5503 51.783 16.5184 51.8013 16.4911C51.8195 16.4637 51.8514 16.4432 51.897 16.4296C51.9425 16.4113 52.0018 16.3977 52.0747 16.3885C52.1476 16.3749 52.2433 16.368 52.3618 16.368C52.4712 16.368 52.5623 16.3749 52.6353 16.3885C52.7127 16.3977 52.7743 16.4113 52.8198 16.4296C52.8654 16.4432 52.8973 16.4637 52.9155 16.4911C52.9338 16.5184 52.9429 16.5503 52.9429 16.5868V25.077ZM60.8862 21.9393C60.8862 22.4406 60.8201 22.9032 60.688 23.327C60.5558 23.7463 60.3576 24.1086 60.0933 24.4139C59.8335 24.7193 59.5054 24.9585 59.1089 25.1317C58.717 25.3003 58.2612 25.3846 57.7417 25.3846C57.2358 25.3846 56.7938 25.3094 56.4155 25.1591C56.0418 25.0087 55.7297 24.7899 55.479 24.5028C55.2284 24.2157 55.0415 23.8671 54.9185 23.4569C54.7954 23.0468 54.7339 22.5819 54.7339 22.0624C54.7339 21.5611 54.7977 21.1008 54.9253 20.6815C55.0575 20.2577 55.2534 19.8931 55.5132 19.5878C55.7775 19.2824 56.1056 19.0455 56.4976 18.8768C56.8895 18.7082 57.3475 18.6239 57.8716 18.6239C58.3774 18.6239 58.8172 18.6991 59.1909 18.8495C59.5692 18.9999 59.8836 19.2186 60.1343 19.5057C60.3849 19.7928 60.5718 20.1415 60.6948 20.5516C60.8224 20.9618 60.8862 21.4244 60.8862 21.9393ZM59.6968 22.0145C59.6968 21.6818 59.6649 21.3674 59.6011 21.0712C59.5418 20.7749 59.4416 20.5152 59.3003 20.2919C59.159 20.0686 58.9676 19.8931 58.7261 19.7655C58.4845 19.6333 58.1838 19.5673 57.8237 19.5673C57.491 19.5673 57.2039 19.6265 56.9624 19.745C56.7254 19.8635 56.5295 20.0321 56.3745 20.2509C56.2196 20.465 56.1034 20.7203 56.0259 21.0165C55.953 21.3127 55.9165 21.6363 55.9165 21.9872C55.9165 22.3244 55.9461 22.6412 56.0054 22.9374C56.0692 23.2336 56.1717 23.4934 56.313 23.7167C56.4588 23.9354 56.6525 24.1109 56.894 24.243C57.1356 24.3706 57.4364 24.4344 57.7964 24.4344C58.1245 24.4344 58.4093 24.3752 58.6509 24.2567C58.8924 24.1382 59.0907 23.9719 59.2456 23.7577C59.4006 23.5435 59.5145 23.2883 59.5874 22.9921C59.6603 22.6958 59.6968 22.37 59.6968 22.0145ZM71.6733 25.0839C71.6733 25.1203 71.6642 25.1522 71.646 25.1796C71.6278 25.2024 71.5981 25.2229 71.5571 25.2411C71.5161 25.2593 71.4591 25.273 71.3862 25.2821C71.3133 25.2912 71.2222 25.2958 71.1128 25.2958C70.9989 25.2958 70.9054 25.2912 70.8325 25.2821C70.7596 25.273 70.7004 25.2593 70.6548 25.2411C70.6138 25.2229 70.5841 25.2024 70.5659 25.1796C70.5477 25.1522 70.5386 25.1203 70.5386 25.0839V21.3446C70.5386 21.0848 70.5158 20.8479 70.4702 20.6337C70.4246 20.4195 70.3517 20.2349 70.2515 20.08C70.1512 19.925 70.0236 19.8065 69.8687 19.7245C69.7137 19.6425 69.5314 19.6014 69.3218 19.6014C69.062 19.6014 68.8 19.7017 68.5356 19.9022C68.2759 20.1027 67.9888 20.3967 67.6743 20.7841V25.0839C67.6743 25.1203 67.6652 25.1522 67.647 25.1796C67.6287 25.2024 67.5968 25.2229 67.5513 25.2411C67.5103 25.2593 67.4533 25.273 67.3804 25.2821C67.3075 25.2912 67.2163 25.2958 67.1069 25.2958C67.0021 25.2958 66.911 25.2912 66.8335 25.2821C66.7606 25.273 66.7013 25.2593 66.6558 25.2411C66.6147 25.2229 66.5851 25.2024 66.5669 25.1796C66.5532 25.1522 66.5464 25.1203 66.5464 25.0839V21.3446C66.5464 21.0848 66.5213 20.8479 66.4712 20.6337C66.4211 20.4195 66.3459 20.2349 66.2456 20.08C66.1453 19.925 66.0177 19.8065 65.8628 19.7245C65.7124 19.6425 65.5324 19.6014 65.3228 19.6014C65.063 19.6014 64.8009 19.7017 64.5366 19.9022C64.2723 20.1027 63.9852 20.3967 63.6753 20.7841V25.0839C63.6753 25.1203 63.6662 25.1522 63.6479 25.1796C63.6297 25.2024 63.6001 25.2229 63.5591 25.2411C63.5181 25.2593 63.4611 25.273 63.3882 25.2821C63.3153 25.2912 63.2218 25.2958 63.1079 25.2958C62.9985 25.2958 62.9074 25.2912 62.8345 25.2821C62.7616 25.273 62.7023 25.2593 62.6567 25.2411C62.6157 25.2229 62.5861 25.2024 62.5679 25.1796C62.5542 25.1522 62.5474 25.1203 62.5474 25.0839V18.9315C62.5474 18.8951 62.5542 18.8654 62.5679 18.8427C62.5815 18.8153 62.6089 18.7925 62.6499 18.7743C62.6909 18.7515 62.7433 18.7378 62.8071 18.7333C62.8709 18.7242 62.9552 18.7196 63.0601 18.7196C63.1603 18.7196 63.2424 18.7242 63.3062 18.7333C63.3745 18.7378 63.4269 18.7515 63.4634 18.7743C63.4998 18.7925 63.5249 18.8153 63.5386 18.8427C63.5568 18.8654 63.5659 18.8951 63.5659 18.9315V19.745C63.9123 19.3576 64.2472 19.0751 64.5708 18.8973C64.8989 18.715 65.2293 18.6239 65.562 18.6239C65.8172 18.6239 66.0451 18.6535 66.2456 18.7128C66.4507 18.772 66.6307 18.8563 66.7856 18.9657C66.9406 19.0705 67.0728 19.1981 67.1821 19.3485C67.2915 19.4943 67.3826 19.6584 67.4556 19.8407C67.6606 19.6174 67.8543 19.4283 68.0366 19.2733C68.2235 19.1184 68.4012 18.993 68.5698 18.8973C68.743 18.8016 68.9093 18.7333 69.0688 18.6923C69.2329 18.6467 69.397 18.6239 69.561 18.6239C69.9575 18.6239 70.2902 18.6945 70.5591 18.8358C70.828 18.9725 71.0444 19.1571 71.2085 19.3895C71.3771 19.6219 71.4956 19.8954 71.564 20.2098C71.6369 20.5197 71.6733 20.8479 71.6733 21.1942V25.0839ZM78.981 21.7411C78.981 21.9188 78.9354 22.0464 78.8442 22.1239C78.7576 22.1968 78.6574 22.2333 78.5435 22.2333H74.5103C74.5103 22.5751 74.5444 22.8827 74.6128 23.1561C74.6812 23.4296 74.7951 23.6643 74.9546 23.8602C75.1141 24.0562 75.3215 24.2066 75.5767 24.3114C75.8319 24.4162 76.144 24.4686 76.5132 24.4686C76.8049 24.4686 77.0646 24.4458 77.2925 24.4003C77.5203 24.3501 77.7163 24.2955 77.8804 24.2362C78.049 24.177 78.1857 24.1246 78.2905 24.079C78.3999 24.0288 78.4819 24.0038 78.5366 24.0038C78.5685 24.0038 78.5959 24.0129 78.6187 24.0311C78.646 24.0448 78.6665 24.0676 78.6802 24.0995C78.6938 24.1314 78.703 24.177 78.7075 24.2362C78.7166 24.2909 78.7212 24.3593 78.7212 24.4413C78.7212 24.5005 78.7189 24.5529 78.7144 24.5985C78.7098 24.6395 78.703 24.6783 78.6938 24.7147C78.6893 24.7466 78.6779 24.7762 78.6597 24.8036C78.646 24.8309 78.6255 24.8583 78.5981 24.8856C78.5754 24.9084 78.5024 24.9494 78.3794 25.0087C78.2563 25.0634 78.0968 25.118 77.9009 25.1727C77.7049 25.2274 77.4771 25.2753 77.2173 25.3163C76.9621 25.3619 76.6886 25.3846 76.397 25.3846C75.8911 25.3846 75.4468 25.314 75.064 25.1727C74.6857 25.0315 74.3667 24.8218 74.1069 24.5438C73.8472 24.2658 73.6512 23.9172 73.519 23.4979C73.3869 23.0787 73.3208 22.591 73.3208 22.035C73.3208 21.5064 73.3892 21.0324 73.5259 20.6132C73.6626 20.1893 73.8586 19.8316 74.1138 19.5399C74.3735 19.2437 74.6857 19.0181 75.0503 18.8632C75.4149 18.7037 75.8228 18.6239 76.2739 18.6239C76.757 18.6239 77.1672 18.7014 77.5044 18.8563C77.8462 19.0113 78.1265 19.2209 78.3452 19.4852C78.564 19.745 78.7235 20.0526 78.8237 20.4081C78.9285 20.759 78.981 21.135 78.981 21.536V21.7411ZM77.8462 21.4061C77.8599 20.8137 77.7277 20.3488 77.4497 20.0116C77.1763 19.6744 76.7684 19.5057 76.2261 19.5057C75.9481 19.5057 75.7043 19.5581 75.4946 19.663C75.285 19.7678 75.1095 19.9068 74.9683 20.08C74.827 20.2531 74.7176 20.4559 74.6401 20.6884C74.5627 20.9162 74.5194 21.1555 74.5103 21.4061H77.8462Z" fill="white"/>
</g>
<defs>
<filter id="filter0_d_1_1044" x="34.3958" y="4.19204" width="56.7612" height="33.3686" filterUnits="userSpaceOnUse" color-interpolation-filters="sRGB">
<feFlood flood-opacity="0" result="BackgroundImageFix"/>
<feColorMatrix in="SourceAlpha" type="matrix" values="0 0 0 0 0 0 0 0 0 0 0 0 0 0 0 0 0 0 127 0" result="hardAlpha"/>
<feOffset/>
<feGaussianBlur stdDeviation="6.088"/>
<feComposite in2="hardAlpha" operator="out"/>
<feColorMatrix type="matrix" values="0 0 0 0 1 0 0 0 0 1 0 0 0 0 1 0 0 0 1 0"/>
<feBlend mode="overlay" in2="BackgroundImageFix" result="effect1_dropShadow_1_1044"/>
<feBlend mode="normal" in="SourceGraphic" in2="effect1_dropShadow_1_1044" result="shape"/>
</filter>
<clipPath id="clip0_1_1044">
<rect width="18" height="18" fill="white" transform="translate(15.22 12.7548)"/>
</clipPath>
</defs>
</svg>
