<svg width="172" height="63" viewBox="0 0 172 63" fill="none" xmlns="http://www.w3.org/2000/svg">
<path fill-rule="evenodd" clip-rule="evenodd" d="M19.1184 1.87561C11.3221 3.65071 7.91704 10.3463 7.67567 14.1576C7.33269 19.5731 13.55 22.0932 17.8209 23.3381L16.5175 27.7946C11.5508 26.3469 3.28436 23.9278 3.28436 16.2812C3.66976 10.1958 9.1337 1.87561 19.1184 1.87561Z" fill="url(#paint0_linear_1_1031)"/>
<path fill-rule="evenodd" clip-rule="evenodd" d="M15.0937 49.2251C22.8899 47.45 26.295 40.7544 26.5364 36.9431C26.8794 31.5276 20.662 29.0075 16.3912 27.7626L17.6945 23.3061C22.6613 24.7538 30.9277 27.1729 30.9277 34.8195C30.5423 40.9049 25.0784 49.2251 15.0937 49.2251Z" fill="url(#paint1_linear_1_1031)"/>
<path fill-rule="evenodd" clip-rule="evenodd" d="M14.2324 10.6789C18.5002 4.74021 25.7938 0.982967 33.0872 3.48034L31.7844 6.47857C25.6491 4.37775 19.2066 6.97104 14.2324 10.6789Z" fill="#01E5D4"/>
<path d="M31.2185 4.17502C31.6588 3.47256 32.5632 3.21653 33.3097 3.58302C34.1112 3.97651 34.4402 4.94124 34.0448 5.7382L30.6716 12.5368C30.1527 13.5827 28.8431 13.9607 27.8415 13.3537C26.8933 12.7792 26.5988 11.5459 27.186 10.609L31.2185 4.17502Z" fill="#01E5D4"/>
<path fill-rule="evenodd" clip-rule="evenodd" d="M19.9797 40.4212C15.7119 46.3599 8.41826 50.1171 1.12486 47.6198L2.42771 44.6215C8.56299 46.7223 15.0055 44.1291 19.9797 40.4212Z" fill="#137AEA"/>
<path d="M2.99357 46.9251C2.5533 47.6275 1.64891 47.8836 0.902426 47.5171C0.100941 47.1236 -0.22813 46.1589 0.167292 45.3619L3.54053 38.5633C4.05942 37.5174 5.36903 37.1394 6.37064 37.7464C7.31882 38.3209 7.61333 39.5542 7.0261 40.4911L2.99357 46.9251Z" fill="#137AEA"/>
<path fill-rule="evenodd" clip-rule="evenodd" d="M28.4653 3.77609C28.4717 3.62508 28.597 3.50798 28.745 3.51455C29.2043 3.53492 29.9025 3.61117 30.6282 3.77261C31.3501 3.93321 32.1218 4.18291 32.7129 4.56116C33.1523 4.84233 33.207 5.39975 33.0068 5.80819L32.193 7.46844C32.1268 7.60364 31.9656 7.65844 31.8331 7.59084C31.7005 7.52324 31.6468 7.35884 31.7131 7.22364L32.5269 5.56339C32.6365 5.33962 32.5753 5.11931 32.4277 5.02487C31.9133 4.6957 31.2115 4.46262 30.5139 4.30743C29.82 4.15308 29.1525 4.08053 28.7217 4.06142C28.5736 4.05486 28.4588 3.92711 28.4653 3.77609Z" fill="white"/>
<path fill-rule="evenodd" clip-rule="evenodd" d="M5.74791 47.3181C5.74147 47.4692 5.61624 47.5863 5.4682 47.5797C5.00885 47.5593 4.31071 47.4831 3.58499 47.3216C2.86305 47.161 2.09143 46.9113 1.50032 46.5331C1.06092 46.2519 1.00617 45.6945 1.20638 45.286L2.02016 43.6258C2.08643 43.4906 2.24759 43.4358 2.38013 43.5034C2.51267 43.571 2.56639 43.7354 2.50012 43.8706L1.68634 45.5308C1.57666 45.7546 1.63788 45.9749 1.78548 46.0694C2.2999 46.3985 3.0017 46.6316 3.69933 46.7868C4.39317 46.9412 5.06075 47.0137 5.49151 47.0328C5.63955 47.0394 5.75435 47.1671 5.74791 47.3181Z" fill="white"/>
<path fill-rule="evenodd" clip-rule="evenodd" d="M6.44939 10.1405C6.58025 10.237 6.60818 10.4216 6.51175 10.5526C5.5264 11.8918 4.98668 13.7801 4.96871 15.7228C4.95075 17.6645 5.45434 19.6261 6.5143 21.1122C6.60879 21.2447 6.57815 21.4288 6.44587 21.5234C6.31359 21.618 6.12976 21.5873 6.03528 21.4548C4.88777 19.846 4.36122 17.7548 4.38007 15.7174C4.3989 13.681 4.96291 11.6639 6.03783 10.2029C6.13426 10.0719 6.31852 10.0439 6.44939 10.1405Z" fill="white"/>
<path fill-rule="evenodd" clip-rule="evenodd" d="M27.7632 40.9538C27.6323 40.8572 27.6044 40.6727 27.7008 40.5416C28.6862 39.2024 29.2259 37.3141 29.2439 35.3714C29.2618 33.4297 28.7582 31.4681 27.6983 29.982C27.6038 29.8496 27.6344 29.6655 27.7667 29.5709C27.899 29.4763 28.0828 29.5069 28.1773 29.6394C29.3248 31.2482 29.8514 33.3394 29.8325 35.3769C29.8137 37.4132 29.2497 39.4304 28.1748 40.8913C28.0783 41.0224 27.8941 41.0503 27.7632 40.9538Z" fill="white"/>
<path d="M44.2433 40.5547C44.2433 41.6641 44.6339 42.2188 45.4152 42.2188C45.6652 42.2188 45.9855 42.1484 46.3761 42.0078C47.0948 41.7422 47.5323 41.6094 47.6886 41.6094C48.048 41.6094 48.3292 41.8359 48.5323 42.2891L49.2589 43.9531C49.3527 44.1875 49.3995 44.4062 49.3995 44.6094C49.3995 44.9688 49.1027 45.4062 48.5089 45.9219C47.3214 46.9062 45.7667 47.3984 43.8448 47.3984C40.3448 47.3984 38.5948 45.0625 38.5948 40.3906V6.96875C38.5948 6.54688 38.7198 6.1875 38.9698 5.89062C39.2198 5.59375 39.5167 5.44531 39.8605 5.44531H43.0011C43.3605 5.44531 43.6573 5.59375 43.8917 5.89062C44.1261 6.1875 44.2433 6.54688 44.2433 6.96875V40.5547ZM58.4933 35.0703L58.4698 35.5156C58.4698 37.6562 59.1495 39.375 60.5089 40.6719C61.9308 42.0469 63.8605 42.7344 66.298 42.7344C68.5167 42.7344 70.5792 42.0703 72.4855 40.7422C72.8448 40.4922 73.1652 40.3672 73.4464 40.3672C74.0245 40.3672 74.462 40.6562 74.7589 41.2344L75.3917 42.5469C75.5323 42.8594 75.6027 43.1953 75.6027 43.5547C75.6027 43.9141 75.4386 44.2891 75.1105 44.6797C74.798 45.0547 74.3839 45.3984 73.8683 45.7109C73.3527 46.0234 72.7511 46.2969 72.0636 46.5312C71.3917 46.7656 70.6964 46.9609 69.9777 47.1172C68.5402 47.4297 67.0402 47.5859 65.4777 47.5859C63.9152 47.5859 62.337 47.2891 60.7433 46.6953C59.1652 46.1016 57.798 45.2344 56.6417 44.0938C54.1573 41.6719 52.9152 38.3984 52.9152 34.2734C52.9152 27.0391 55.462 22.5391 60.5558 20.7734C62.1495 20.2266 63.7823 19.9531 65.4542 19.9531C67.1417 19.9531 68.5714 20.1328 69.7433 20.4922C70.9308 20.8516 71.9542 21.3828 72.8136 22.0859C74.6261 23.5703 75.5323 25.6406 75.5323 28.2969C75.5323 30.9062 74.4698 32.8984 72.3448 34.2734C70.4855 35.4766 68.0323 36.0781 64.9855 36.0781C63.1105 36.0781 60.9464 35.7422 58.4933 35.0703ZM70.0245 28.2266C70.0245 25.9922 68.5245 24.875 65.5245 24.875C62.6652 24.875 60.6652 25.9219 59.5245 28.0156C59.1183 28.75 58.8527 29.6562 58.7277 30.7344C60.0714 31.4062 61.7823 31.7422 63.8605 31.7422C67.9698 31.7422 70.0245 30.5703 70.0245 28.2266ZM100.095 23.8672V6.92188C100.095 6.51563 100.212 6.17188 100.446 5.89062C100.696 5.59375 101.001 5.44531 101.36 5.44531H104.618C104.978 5.44531 105.275 5.59375 105.509 5.89062C105.743 6.17188 105.86 6.51563 105.86 6.92188V36.9688C105.86 40.125 106.11 42.7422 106.61 44.8203C106.657 45.0391 106.681 45.3203 106.681 45.6641C106.681 45.9922 106.532 46.2969 106.235 46.5781C105.954 46.8594 105.587 47 105.134 47H103.985C103.064 47 102.446 46.625 102.134 45.875C101.728 44.9219 101.392 43.6641 101.126 42.1016C99.923 44.6484 97.8995 46.3438 95.0558 47.1875C94.1183 47.4531 92.9464 47.5859 91.5402 47.5859C90.1495 47.5859 88.7589 47.2266 87.3683 46.5078C85.9933 45.7891 84.8214 44.8125 83.8527 43.5781C81.8683 41.0156 80.8761 37.8281 80.8761 34.0156C80.8761 30.0781 81.837 26.8125 83.7589 24.2188C85.837 21.3906 88.6105 19.9766 92.0792 19.9766C95.548 19.9766 98.2198 21.2734 100.095 23.8672ZM86.8761 34.1797C86.8761 35.2422 87.0011 36.2812 87.2511 37.2969C87.5167 38.3125 87.9152 39.2188 88.4464 40.0156C89.6339 41.8281 91.2745 42.7344 93.3683 42.7344C95.2745 42.7344 96.9464 41.9062 98.3839 40.25C99.9152 38.5312 100.681 36.5 100.681 34.1562C100.681 31.3125 99.9386 29.0312 98.4542 27.3125C97.0323 25.6719 95.2823 24.8516 93.2042 24.8516C91.0323 24.8516 89.3839 25.875 88.2589 27.9219C87.337 29.6406 86.8761 31.7266 86.8761 34.1797ZM121.001 44.4922C122.47 43.7734 124.025 43.4141 125.665 43.4141C127.321 43.4141 128.79 43.5703 130.071 43.8828C131.368 44.1797 132.532 44.6562 133.564 45.3125C135.876 46.7812 137.032 48.8359 137.032 51.4766C137.032 54.2266 135.72 56.4375 133.095 58.1094C130.767 59.5781 127.97 60.3125 124.704 60.3125C121.376 60.3125 118.603 59.5938 116.384 58.1562C113.993 56.5938 112.798 54.4688 112.798 51.7812C112.798 48.5156 114.525 45.3594 117.978 42.3125C119.321 41.1406 120.806 40.0859 122.431 39.1484C119.884 38.9141 117.712 38.0156 115.915 36.4531C113.9 34.6875 112.892 32.4922 112.892 29.8672C112.892 26.8516 114.025 24.4062 116.29 22.5312C118.368 20.8281 120.845 19.9766 123.72 19.9766C126.814 19.9766 129.243 20.8125 131.009 22.4844C131.556 23 131.993 23.5859 132.321 24.2422C132.321 22.8047 132.134 21.3203 131.759 19.7891C131.4 18.2422 131.22 17.3203 131.22 17.0234C131.22 16.7266 131.275 16.4922 131.384 16.3203C131.509 16.1328 131.65 15.9922 131.806 15.8984C132.04 15.7578 132.306 15.6875 132.603 15.6875H134.618C135.915 15.6875 136.564 17.4922 136.564 21.1016C136.564 23.9922 135.985 26.6562 134.829 29.0938C134.86 29.4375 134.876 29.8906 134.876 30.4531C134.876 31.0156 134.751 31.6719 134.501 32.4219C134.251 33.1719 133.915 33.875 133.493 34.5312C133.087 35.1719 132.61 35.7656 132.064 36.3125C131.532 36.8594 130.962 37.3672 130.353 37.8359C129.759 38.3047 129.157 38.7344 128.548 39.125C125.126 41.2969 123.079 42.6562 122.407 43.2031C121.735 43.7344 121.267 44.1641 121.001 44.4922ZM119.923 33.6172C120.454 34.0703 121.071 34.4219 121.775 34.6719C122.493 34.9062 123.251 35.0234 124.048 35.0234C124.86 35.0234 125.603 34.9062 126.275 34.6719C126.946 34.4219 127.54 34.0625 128.056 33.5938C129.15 32.6094 129.696 31.3438 129.696 29.7969C129.696 28.2188 129.087 26.9766 127.868 26.0703C126.79 25.2734 125.462 24.875 123.884 24.875C121.384 24.875 119.657 25.8047 118.704 27.6641C118.392 28.2734 118.235 28.9844 118.235 29.7969C118.235 30.5938 118.384 31.3125 118.681 31.9531C118.978 32.5938 119.392 33.1484 119.923 33.6172ZM118.798 48.8281C118.22 49.4844 117.931 50.2109 117.931 51.0078C117.931 51.8047 118.126 52.4844 118.517 53.0469C118.907 53.6094 119.423 54.0781 120.064 54.4531C121.298 55.1562 122.845 55.5078 124.704 55.5078C127.642 55.5078 129.689 54.7812 130.845 53.3281C131.22 52.8438 131.407 52.2344 131.407 51.5C131.407 50.7656 131.173 50.1406 130.704 49.625C130.251 49.1094 129.681 48.7109 128.993 48.4297C127.853 47.9609 126.368 47.7266 124.54 47.7266C121.728 47.7266 119.814 48.0938 118.798 48.8281ZM146.478 35.0703L146.454 35.5156C146.454 37.6562 147.134 39.375 148.493 40.6719C149.915 42.0469 151.845 42.7344 154.282 42.7344C156.501 42.7344 158.564 42.0703 160.47 40.7422C160.829 40.4922 161.15 40.3672 161.431 40.3672C162.009 40.3672 162.446 40.6562 162.743 41.2344L163.376 42.5469C163.517 42.8594 163.587 43.1953 163.587 43.5547C163.587 43.9141 163.423 44.2891 163.095 44.6797C162.782 45.0547 162.368 45.3984 161.853 45.7109C161.337 46.0234 160.735 46.2969 160.048 46.5312C159.376 46.7656 158.681 46.9609 157.962 47.1172C156.525 47.4297 155.025 47.5859 153.462 47.5859C151.9 47.5859 150.321 47.2891 148.728 46.6953C147.15 46.1016 145.782 45.2344 144.626 44.0938C142.142 41.6719 140.9 38.3984 140.9 34.2734C140.9 27.0391 143.446 22.5391 148.54 20.7734C150.134 20.2266 151.767 19.9531 153.439 19.9531C155.126 19.9531 156.556 20.1328 157.728 20.4922C158.915 20.8516 159.939 21.3828 160.798 22.0859C162.61 23.5703 163.517 25.6406 163.517 28.2969C163.517 30.9062 162.454 32.8984 160.329 34.2734C158.47 35.4766 156.017 36.0781 152.97 36.0781C151.095 36.0781 148.931 35.7422 146.478 35.0703ZM158.009 28.2266C158.009 25.9922 156.509 24.875 153.509 24.875C150.65 24.875 148.65 25.9219 147.509 28.0156C147.103 28.75 146.837 29.6562 146.712 30.7344C148.056 31.4062 149.767 31.7422 151.845 31.7422C155.954 31.7422 158.009 30.5703 158.009 28.2266Z" fill="url(#paint2_linear_1_1031)"/>
<defs>
<linearGradient id="paint0_linear_1_1031" x1="3.28436" y1="7.07584" x2="32.7067" y2="42.3827" gradientUnits="userSpaceOnUse">
<stop stop-color="#01E5D4"/>
<stop offset="1" stop-color="#137AEA"/>
</linearGradient>
<linearGradient id="paint1_linear_1_1031" x1="3.28436" y1="7.07584" x2="32.7067" y2="42.3827" gradientUnits="userSpaceOnUse">
<stop stop-color="#01E5D4"/>
<stop offset="1" stop-color="#137AEA"/>
</linearGradient>
<linearGradient id="paint2_linear_1_1031" x1="34.5457" y1="4.77293" x2="182.484" y2="52.3506" gradientUnits="userSpaceOnUse">
<stop stop-color="#03DED6"/>
<stop offset="1" stop-color="#137AEA"/>
</linearGradient>
</defs>
</svg>
